<svg width="24" height="24" viewBox="0 0 24 24" fill="none" xmlns="http://www.w3.org/2000/svg">
<path d="M16.906 7.18327C16.9108 7.18327 16.9171 7.18327 16.9235 7.18327C17.09 7.18327 17.2446 7.23506 17.3713 7.3243L17.3689 7.32271C17.4614 7.40319 17.5235 7.51633 17.5386 7.64382V7.64622C17.5546 7.74343 17.5633 7.85498 17.5633 7.96892C17.5633 8.02072 17.5618 8.07171 17.5578 8.12271V8.11554C17.3785 10.0032 16.6008 14.5809 16.2056 16.694C16.0382 17.5888 15.7092 17.8884 15.3904 17.9171C14.698 17.9817 14.1721 17.4598 13.5012 17.0199C12.451 16.3307 11.8574 15.902 10.8382 15.2303C9.65976 14.455 10.4239 14.0271 11.0948 13.3307C11.2709 13.1474 14.3235 10.3705 14.3833 10.1187C14.3865 10.1036 14.388 10.0869 14.388 10.0693C14.388 10.0072 14.3649 9.9506 14.3275 9.90757C14.2861 9.88048 14.2343 9.86534 14.1801 9.86534C14.1442 9.86534 14.11 9.87251 14.0781 9.88446L14.0797 9.88367C13.9745 9.90757 12.2969 11.0162 9.04701 13.2096C8.69243 13.4892 8.24462 13.6661 7.75697 13.6869H7.75219C7.06136 13.6032 6.43426 13.4494 5.83904 13.2303L5.89801 13.2494C5.1506 13.0056 4.55697 12.8773 4.60797 12.4645C4.63506 12.2499 4.93094 12.0303 5.49562 11.8056C8.97397 10.29 11.2935 9.2911 12.4542 8.80876C13.7347 8.12908 15.2191 7.56972 16.7801 7.20717L16.9052 7.18247L16.906 7.18327ZM11.9721 0C5.35697 0.0159363 0 5.38247 0 12C0 18.6271 5.37211 24 12 24C18.6279 24 24 18.6279 24 12C24 5.38247 18.643 0.0159363 12.0295 0H12.0279C12.0093 0 11.9907 0 11.9721 0Z" fill="#838383"/>
</svg>
