<svg width="19" height="19" viewBox="0 0 19 19" fill="none" xmlns="http://www.w3.org/2000/svg">
<path d="M7.19617 7.12468C7.38229 6.59558 7.74966 6.14943 8.23322 5.86524C8.71677 5.58105 9.2853 5.47717 9.8381 5.57199C10.3909 5.66681 10.8923 5.95422 11.2535 6.3833C11.6147 6.81239 11.8124 7.35546 11.8116 7.91634C11.8116 9.49968 9.43659 10.2913 9.43659 10.2913M9.49992 13.458H9.50784M17.4166 9.49968C17.4166 13.8719 13.8722 17.4163 9.49992 17.4163C5.12766 17.4163 1.58325 13.8719 1.58325 9.49968C1.58325 5.12742 5.12766 1.58301 9.49992 1.58301C13.8722 1.58301 17.4166 5.12742 17.4166 9.49968Z" stroke="#838383" stroke-width="1.33333" stroke-linecap="round" stroke-linejoin="round"/>
</svg>
